<svg width="40" height="40" viewBox="0 0 40 40" fill="none" xmlns="http://www.w3.org/2000/svg">
<path d="M26.1794 5.16947C27.3515 4.78109 27.8748 5.03458 28.3073 6.19739C28.3469 6.30437 28.3818 6.416 28.4073 6.52996C28.5911 7.3416 28.9701 7.82533 29.9283 7.75557C30.4492 7.71836 30.9911 7.95324 31.5702 8.0765C31.8167 7.67882 32.0632 7.26021 32.333 6.85555C32.8237 6.1253 33.5447 5.93227 34.1889 6.34158C34.847 6.7602 34.9819 7.45091 34.5447 8.2393C34.3214 8.64163 34.0703 9.02768 33.8679 9.35792C34.5726 10.3579 35.2331 11.3231 35.9331 12.258C36.0331 12.3929 36.3215 12.4417 36.5215 12.4347C36.8657 12.4231 37.2052 12.3138 37.5494 12.2882C38.2843 12.2324 38.8866 12.6999 38.9843 13.3743C39.0866 14.0789 38.682 14.6859 37.9634 14.858C37.5726 14.9511 37.1703 14.9976 36.675 15.0836C36.675 15.4697 36.675 15.8627 36.675 16.2557C36.4563 17.1488 36.2377 18.0418 36.0191 18.9372C37.7936 20.1233 38.1517 20.6186 37.6285 21.3721C36.6377 22.7954 35.647 21.5977 34.8586 21.3465C33.8865 22.1907 32.9935 22.9629 32.0865 23.7489C32.7005 24.7164 34.2493 25.5048 32.8958 26.6955C31.6051 27.8327 30.9818 26.2397 30.1283 25.6513L27.1701 27.863C27.3748 28.6467 27.6143 29.356 27.7097 30.0816C27.7376 30.2932 27.3957 30.6305 27.1469 30.7886C26.4003 31.263 25.8375 30.9235 24.7515 29.3909C23.5933 29.9467 22.4282 30.5025 21.3956 30.9979C21.3956 31.7654 21.4537 32.463 21.3607 33.1421C21.3305 33.3607 20.9305 33.6003 20.6537 33.698C19.7886 34.0073 19.3979 33.6445 18.6699 31.9468C17.2932 32.0468 15.9141 32.1444 14.4768 32.2491C14.428 32.6979 14.4001 33.2142 14.314 33.7212C14.1861 34.4631 13.6908 34.8189 12.9628 34.8073C12.2652 34.7957 11.7721 34.2352 11.7651 33.47C11.7605 32.9212 11.8093 32.3723 11.8326 31.8142C10.9116 31.4235 10.0139 31.0444 9.07672 30.6491C8.31159 31.3165 7.86972 33.1305 6.39294 32.0095C4.94408 30.9095 6.53946 29.9583 6.93947 28.9886L5.11152 26.2513C4.70686 26.3978 4.23709 26.5885 3.75568 26.7397C3.03008 26.9676 2.351 26.6676 2.09983 26.0373C1.82773 25.3559 2.12309 24.6466 2.84869 24.3164C3.36963 24.0792 3.90685 23.8815 4.43942 23.6652V20.1186C4.04871 19.9558 3.54405 19.7628 3.05334 19.5395C2.2417 19.1698 1.93937 18.5046 2.23472 17.7883C2.52542 17.086 3.22079 16.8255 4.04173 17.1278C4.49988 17.2953 4.94873 17.486 5.28362 17.6186C6.27434 16.4395 7.21389 15.3185 8.19066 14.1557C7.42552 12.3278 7.43483 11.8231 8.27903 11.3835C9.07905 10.9673 9.43487 11.2021 10.6116 12.9278C11.6279 12.7115 12.6396 12.4975 13.7512 12.2603C13.6931 11.9091 13.6094 11.5254 13.5698 11.137C13.4884 10.3626 13.8884 9.77421 14.5652 9.63932C15.3071 9.49048 15.9234 9.88352 16.135 10.6579C16.1955 10.8812 16.2629 11.1114 16.2606 11.3394C16.2513 12.344 16.8397 12.6836 17.7188 13.0092C19.2234 13.5673 20.4304 13.4906 21.3653 11.9626C21.0909 11.6556 20.7653 11.3021 20.4467 10.9394C19.7862 10.1882 19.7537 9.40444 20.3537 8.87187C20.9398 8.35093 21.7165 8.47651 22.4049 9.20908C22.7189 9.54397 23.0258 9.88817 23.3003 10.1928C24.2956 9.49048 25.2352 8.83001 26.205 8.14395C26.0166 7.19276 25.0794 6.18809 26.1794 5.16947ZM15.5001 29.7769C16.9839 29.4234 18.5234 29.2211 19.9397 28.6909C24.9166 26.8374 28.9655 23.6303 32.4307 19.6744C33.0563 18.9604 33.4912 18.0046 33.7865 17.0883C34.54 14.7534 33.5586 12.3789 31.4097 11.0091C29.5213 9.80677 27.4817 10.0835 25.5398 11.8277C24.4189 12.8347 23.3119 13.8603 22.2026 14.8836C21.4491 15.579 20.5583 16.0767 19.542 15.979C18.5188 15.8813 17.4978 15.6046 16.5094 15.2976C13.5001 14.365 10.293 15.3441 8.42089 17.8279C6.54876 20.3116 6.44411 23.7326 8.24182 26.2838C9.99069 28.7653 12.5582 29.5467 15.4955 29.7723L15.5001 29.7769Z" fill="#040303"/>
<path d="M15.4466 29.7746C9.05577 29.9537 4.09986 23.1326 8.24645 17.6186C11.2093 13.6045 15.4164 14.7464 19.563 15.7371C22.1816 15.7627 23.7119 12.9138 25.6654 11.5115C31.2353 6.48345 37.1912 14.7278 32.6772 19.4953C28.1864 24.6768 22.3537 28.7513 15.4466 29.7746Z" fill="#6F9CDD"/>
<path d="M33.2726 12.2696C33.6144 13.958 33.2447 15.8371 31.8004 17.3627C27.3097 22.5443 21.477 26.6188 14.5699 27.642C11.2954 27.7327 8.39997 25.9885 6.90924 23.521C7.74182 27.0443 11.2907 29.8909 15.4466 29.7746C22.3537 28.7514 28.1864 24.6769 32.6772 19.4954C34.7773 17.2767 34.6121 14.3069 33.2726 12.2696Z" fill="#3079D1"/>
</svg>
