<svg width="40" height="40" viewBox="0 0 40 40" fill="none" xmlns="http://www.w3.org/2000/svg">
<path fill-rule="evenodd" clip-rule="evenodd" d="M10.5864 6.19749C10.2304 6.46748 10.0147 7.09796 10.0147 7.8672C10.0147 8.48863 9.99212 8.52031 9.50342 8.60025C8.5939 8.74806 7.29825 9.47357 6.3299 10.3786C5.28312 11.3575 4.56667 12.5551 4.21221 13.9171C3.47917 16.7346 4.69035 19.8916 7.14892 21.5673C7.52299 21.8222 7.8518 22.0485 7.88046 22.0711C7.90912 22.0937 7.81259 22.6262 7.66326 23.2551C7.3978 24.3834 7.3978 24.403 7.70097 24.8117C7.89705 25.0757 8.17609 25.2416 8.47625 25.2718C9.26359 25.3502 9.53358 25.0878 9.88352 23.8992L10.2033 22.8117L11.1022 22.863C11.9394 22.9112 11.9952 22.9369 11.9182 23.2431C11.52 24.8283 11.4959 25.1602 11.7433 25.5387C12.0872 26.0652 12.6543 26.2582 13.1521 26.0184C13.6453 25.7816 13.8836 25.3215 14.0978 24.1933C14.2592 23.3426 14.2773 23.317 14.6664 23.4135C14.8866 23.4693 15.3859 23.6503 15.775 23.8177L16.4824 24.1224L15.9636 25.1013C15.3587 26.2401 15.3346 26.4769 15.7569 27.0139C15.9983 27.3201 16.2019 27.4106 16.6514 27.4106C17.303 27.4106 17.5971 27.1346 18.0752 26.0742C18.2306 25.7303 18.398 25.4528 18.4463 25.4543C18.4961 25.4573 18.7706 25.6534 19.0587 25.8902L19.5805 26.3231L19.0225 27.0033C18.3166 27.8646 18.125 28.3548 18.3075 28.8344C18.478 29.2809 18.8943 29.5222 19.4961 29.5222C19.8385 29.5222 20.0768 29.3714 20.4855 28.8933C20.7812 28.5479 21.0481 28.2929 21.0768 28.3276C21.1055 28.3623 21.3046 28.6911 21.5202 29.0592L21.9109 29.7259L21.3181 30.4001C20.6107 31.204 20.5459 31.7711 21.0949 32.3202C21.6288 32.8541 22.1341 32.7923 22.8687 32.1075L23.4931 31.5253L24.1824 31.9627C27.1991 33.8768 31.5446 33.0623 33.7181 30.1753C34.7739 28.7726 35.0997 27.7952 35.1148 25.9792C35.1223 25.1496 35.0786 24.2521 35.0198 23.9837C34.9172 23.5251 34.9504 23.4738 35.5884 23.0998C36.6171 22.4965 36.8207 21.9007 36.2475 21.1721C35.8629 20.6834 35.2792 20.6533 34.4451 21.0786L33.8508 21.3818L33.4511 20.7393C33.2309 20.3863 32.9896 20.0183 32.9141 19.9217C32.8206 19.8041 32.9715 19.6095 33.3817 19.3184C34.1253 18.7905 34.335 18.2852 34.071 17.6562C33.7452 16.8794 32.9639 16.7829 32.0272 17.4043L31.4224 17.8041L30.9624 17.3666C30.1886 16.6306 30.1811 16.525 30.8372 15.7301C31.5265 14.896 31.5838 14.4269 31.0619 13.905C30.5114 13.3545 30.0242 13.4299 29.2006 14.1916L28.4902 14.8492L27.4178 13.9895L26.3454 13.1298L26.7768 12.5506C27.448 11.6516 27.2624 10.6772 26.3786 10.4555C25.8868 10.3318 25.4479 10.5686 24.8265 11.2866L24.3303 11.8612L23.1673 11.2504C22.5278 10.914 21.9818 10.6184 21.9562 10.5927C21.9305 10.5671 22.0482 10.2715 22.2201 9.93512C22.825 8.74957 22.4856 7.75257 21.4765 7.75257C20.9169 7.75257 20.4901 8.12965 20.033 9.03163L19.6771 9.73149L18.6243 9.42379L17.5699 9.1161L17.6574 8.18244C17.7404 7.29555 17.7238 7.23371 17.3286 6.92148C16.4613 6.23972 15.5533 6.74501 15.3618 8.01653C15.2909 8.49165 15.1928 8.6998 15.0661 8.65153C14.962 8.61231 14.3255 8.53087 13.6513 8.47204L12.425 8.36495V7.54744C12.425 6.88076 12.3572 6.66205 12.054 6.36038C11.6467 5.95314 10.9982 5.88074 10.5819 6.19598L10.5864 6.19749Z" fill="black"/>
<path fill-rule="evenodd" clip-rule="evenodd" d="M9.84432 10.9035C8.31638 11.3741 6.91666 12.7617 6.53204 14.1841C6.28618 15.0996 6.3269 16.4194 6.63008 17.3335C6.82616 17.9262 7.13537 18.3742 7.81411 19.053C8.94385 20.1827 9.57433 20.415 12.051 20.6201C13.0465 20.7016 14.3587 20.9082 14.9666 21.0771C18.4312 22.044 21.2201 24.2144 23.3031 27.5674C24.4253 29.3759 25.2594 30.1135 26.6018 30.4906C27.6773 30.7923 28.2519 30.7923 29.3274 30.4906C31.0242 30.014 32.4285 28.4785 32.7995 26.6956C33.1178 25.1587 32.7347 23.9309 31.1947 21.5613C27.264 15.5114 20.9019 11.5973 13.7539 10.825C11.8293 10.6169 10.6995 10.6395 9.84432 10.9035Z" fill="#B9EA6A"/>
<path fill-rule="evenodd" clip-rule="evenodd" d="M31.1931 21.5598C27.264 15.5114 20.9018 11.5973 13.7539 10.825C12.4371 10.6832 11.4929 10.6485 10.7523 10.7255C11.0902 10.7481 11.4567 10.7813 11.8594 10.825C19.0089 11.5958 25.3695 15.5114 29.2987 21.5583C30.8387 23.9278 31.2218 25.1556 30.9035 26.6926C30.5325 28.4769 29.1298 30.0124 27.4314 30.4875C27.2836 30.5283 27.1463 30.5645 27.0151 30.5946C27.8416 30.7832 28.3967 30.7485 29.3258 30.4875C31.0227 30.0109 32.427 28.4769 32.798 26.6926C33.1163 25.1556 32.7331 23.9278 31.1931 21.5583V21.5598Z" fill="#95D528"/>
</svg>
