<?xml version="1.0" encoding="UTF-8"?><svg id="_лой_2" xmlns="http://www.w3.org/2000/svg" xmlns:xlink="http://www.w3.org/1999/xlink" viewBox="0 0 145.23 176.75"><defs><style>.cls-1{fill:url(#_овый_образец_градиента_1-3);}.cls-1,.cls-2,.cls-3,.cls-4,.cls-5,.cls-6,.cls-7,.cls-8{fill-rule:evenodd;}.cls-2{fill:url(#_овый_образец_градиента_1);}.cls-3{fill:url(#_овый_образец_градиента_1-6);}.cls-4{fill:url(#_овый_образец_градиента_1-4);}.cls-5{fill:url(#_овый_образец_градиента_1-5);}.cls-6{fill:url(#_овый_образец_градиента_1-2);}.cls-7{fill:#61b988;}.cls-8{fill:#0f1c2b;}</style><linearGradient id="_овый_образец_градиента_1" x1="32.44" y1="114.4" x2="111.83" y2="114.4" gradientTransform="matrix(1, 0, 0, 1, 0, 0)" gradientUnits="userSpaceOnUse"><stop offset="0" stop-color="#2bb8ec"/><stop offset=".22" stop-color="#3ab8cf"/><stop offset=".56" stop-color="#4fb8a8"/><stop offset=".83" stop-color="#5cb890"/><stop offset="1" stop-color="#61b988"/></linearGradient><linearGradient id="_овый_образец_градиента_1-2" x1="71.13" y1="22.81" x2="78.79" y2="22.81" xlink:href="#_овый_образец_градиента_1"/><linearGradient id="_овый_образец_градиента_1-3" x1="65.25" y1="35.36" x2="70.78" y2="35.36" xlink:href="#_овый_образец_градиента_1"/><linearGradient id="_овый_образец_градиента_1-4" x1="72.17" y1="50.12" x2="79.76" y2="50.12" xlink:href="#_овый_образец_градиента_1"/><linearGradient id="_овый_образец_градиента_1-5" x1="73.96" y1="72.45" x2="84.18" y2="72.45" xlink:href="#_овый_образец_градиента_1"/><linearGradient id="_овый_образец_градиента_1-6" x1="55.05" y1="85.87" x2="69.93" y2="85.87" xlink:href="#_овый_образец_градиента_1"/></defs><g id="_лой_1-2"><g><path class="cls-2" d="M108.74,101.07c-6.7-4.1-11.7-4.6-25.4-2.7-14.4,2.1-25.2,1.7-30.9-1-2.1-1.1-6.3-4.3-9.2-7.2-2.9-2.9-5.5-5.3-5.9-5.5-.4,0-1.6,2.2-2.8,4.8-1.7,3.9-2.1,6.6-2.1,14.8,0,8.7,.3,10.8,2.6,15.7,9.6,20.9,34.2,30,54.3,20.2,11.7-5.7,21.1-18.9,22.2-31.1,.6-5.9,.5-5.9-2.8-8Zm-60.7,12.3c-3.2,0-4.9-2.8-3.1-5,.7-.9,2.3-1.5,3.4-1.3,1.6,.2,2.1,1,2.1,3.3,0,2.5-.4,3-2.4,3Zm13,13.4c-4.2,.6-6.8-3.8-3.9-6.7,1.7-1.7,5.8-1.1,7.2,1.1,1.4,2.3-.3,5.1-3.3,5.6Zm12.4-15.9c-1.8-1.5-1.9-3.2-.3-4.8,1.8-1.8,4.2-1,4.6,1.4,.4,2.9-2.3,5.1-4.3,3.4Zm21,15.3c-.7,2.9-4.4,5.7-7.5,5.7-2.8,0-8-5.2-8-8,0-1.2,1.3-3.5,2.9-5.1,3.2-3.2,4.7-3.5,8.5-1.8,3.1,1.4,5,5.7,4.1,9.2Z"/><path class="cls-8" d="M64.62,176.08c-2.4-1.8-1.77-6.4,1.13-7.7,1.9-.8,2.2-1.8,2.2-5.6v-4.6l-7-1.5c-3.8-.8-7-1.3-7-1.2,0,.2,.5,1.2,1.2,2.2,1.6,2.5,.4,5.1-2.4,5.1-7-.1-13-7.1-7.3-8.5,3.4-.9,3.2-1.5-1.2-4.2-2.1-1.2-4.5-2.8-5.5-3.5-1.5-1.1-2.2-.7-4.7,2.2-1.9,2.3-2.6,3.8-2,4.4,2.5,2.5,.3,7.6-3.3,7.6-1.9,0-10.2-7.1-11.8-10.2-1.9-3.5,2.4-7.8,5.9-5.9,1.5,.8,2.5,.3,5-2.3l3.2-3.3-3.6-5.4c-4.2-6.2-5.5-7.1-5.5-3.6,0,1.4-.6,2.7-1.2,2.9-2.3,.8-4.4-1.2-6.2-5.8-1.6-4.3-1.7-4.8-.1-6.3,1.4-1.4,2-1.4,3.7-.3,2.8,1.7,3.3,.9,2-2.9-.6-1.8-1.1-4.5-1.1-6.1,0-2.8-.2-2.9-5-2.9-4.1,0-5,.3-5,1.8,0,3.7-5.1,5.7-7.8,3-1.8-1.8-1.6-16.2,.3-17.8,2-1.7,6.2-.5,7,2,.6,1.7,1.3,2,5.3,1.7,4.6-.3,4.7-.3,5.3-4.3,.3-2.2,.9-5.2,1.4-6.8,.5-1.8,.4-2.8-.3-2.8-.6,0-1.1,.4-1.1,1,0,1.7-5,1.1-5.7-.7-1-2.5,3.8-10.8,6.2-10.8,1.3,0,2.1,.8,2.3,2.2,.5,3.4,1.8,2.7,5.5-3l3.4-5.2-3-3.2c-2.5-2.6-3.4-3-5-2.2-4,2.1-8.9-1.2-6.9-4.8,1.3-2.1,10.2-10.9,11.4-10.9,2.8,0,4.9,2.7,4.3,5.6-.5,2.3,0,3.5,2.5,6.1l3.1,3.2,3.1-2.3c1.7-1.3,5.5-3.5,8.4-5l5.3-2.6-.3-9.2-.3-9.2-4.5-.4c-5-.4-7-1.6-7-4.3,0-2.9,3.4-4,11.8-3.7l7.7,.3,.3,16.8c.2,13.2,0,16.8-1,16.8-.7,0-4.4,1.5-8.3,3.4-13.1,6.2-22.9,19.4-25.5,34.3-1.1,5.9-1,8,.4,14.1,3.6,15.9,11.9,26.7,26.2,33.7,6.5,3.2,8.8,3.8,16,4.2,19.9,1,37.5-10.2,45.1-28.8,9.7-24-3.3-52.1-27.8-60l-3.8-1.2V25.87h8.4c7.5,0,8.6,.2,10,2.2,2.4,3.4,.5,5.7-5.2,6l-4.7,.3-.3,9.2-.3,9.2,4.3,2.2c2.4,1.2,5.7,3.2,7.4,4.5,4.4,3.3,4.7,3.3,7.7-.2,2.4-2.8,2.6-3.4,1.4-5.9-1.1-2.4-1-2.9,1.1-4.6,1.3-1,2.8-1.9,3.3-1.9,2.1,0,11.8,10.3,11.8,12.5,0,3.1-2.4,4.8-5.7,4-2.3-.5-3.4,0-5.7,2.3l-2.8,3,3.9,6.3c3.4,5.5,3.9,6,4.2,3.8,.4-2.5,1.7-3.9,3.9-3.9,1.4,0,5.1,7.4,5.2,10.3,0,2.4-2.8,3.3-5.3,1.8-1.9-1.2-2-1.1-1.3,2.1,.4,1.8,.9,5,1.3,7.1,.6,3.7,.6,3.8,5.5,3.8,4.5,0,4.9-.2,4.9-2.5,0-3.7,4.2-5.5,7-3,2.9,2.6,2.9,15.3,.1,17.9-2.5,2.3-5.9,1.2-6.7-2.1-.6-2.3-1-2.5-5.2-2.2l-4.6,.3-1.3,5.5c-.7,3-1.3,6.4-1.3,7.4q0,1.8,1.9,.1c2.3-2.1,5-1.4,5,1.3s-2.6,8.5-4.3,10c-1.7,1.4-4.4-.3-4.9-3.2-.3-1.4-1.3-.5-4.2,3.9l-3.8,5.8,3.1,3.1c2.8,2.8,3.3,2.9,5.5,1.8,3.2-1.7,6.7,0,6.7,3.3s-9.2,12.6-12.4,12.6-5.1-3.2-3.5-6.1c1-1.8,.7-2.6-2.1-5.4l-3.2-3.3-6.1,4.2c-5.2,3.5-5.8,4.2-3.9,4.5,2.5,.4,4.5,3.2,3.4,4.9-.9,1.5-7.5,4.2-10.1,4.2s-3.6-2.5-2-4.5c2-2.4,.4-2.8-6-1.5l-6,1.3v4.9c0,4.1,.3,4.9,1.9,4.9,4.2,0,5.4,7.2,1.4,8.3-1,.3-14.33,.8-15.83-.3Z"/><path class="cls-7" d="M86.94,1.87c2.5,2.5,2.6,7.2,.1,9.4-2.8,2.6-8.2,1.8-10-1.5-3.6-6.5,4.7-13.1,9.9-7.9Z"/><path class="cls-6" d="M77.34,20.47c1.9,1.9,1.9,2.5,.2,4.9-1.7,2.3-5.3,1.3-6.2-1.7-.5-1.5-.1-2.5,1.1-3.4,2.4-1.8,3-1.7,4.9,.2Z"/><path class="cls-1" d="M70.74,35.17c.2,1-.4,2-1.3,2.4-2,.8-5-2-4-3.6,1-1.8,4.9-.9,5.3,1.2Z"/><path class="cls-4" d="M79.04,48.47c1.8,2.1,0,4.9-3.1,4.9s-4.8-2.8-3.1-4.9c.7-.9,2.1-1.6,3.1-1.6s2.3,.7,3.1,1.6Z"/><path class="cls-5" d="M82.44,69.27c3.4,3.4,1.5,8.6-3.1,8.6-5.1,0-7.4-6.5-3.2-9.4,3-2.1,3.5-2,6.3,.8Z"/><path class="cls-3" d="M67.94,80.87c4.4,4.4,1,12-5.5,12-2.5,0-4-.7-5.5-2.6-4.1-5.3-1.2-11.4,5.5-11.4,2.2,0,4.3,.8,5.5,2Z"/></g></g></svg>