<svg width="41" height="41" viewBox="0 0 41 41" fill="none" xmlns="http://www.w3.org/2000/svg">
<path d="M35.5302 20.22C35.2249 20.7111 34.769 20.8524 34.2047 20.8339C33.4117 20.8067 32.6172 20.8267 31.9168 20.8267C31.5247 22.2629 31.1484 23.6406 30.7548 25.0826C31.4465 25.478 32.2395 25.9306 33.0311 26.3889C33.4073 26.6073 33.6157 26.9299 33.5303 27.3654C33.4507 27.768 33.1874 28.0606 32.7692 28.0906C32.5188 28.1077 32.2337 28.0192 32.0065 27.8993C31.2454 27.4953 30.5045 27.0541 29.8316 26.6715C28.7766 27.7123 27.7492 28.7259 26.661 29.7981C27.0372 30.442 27.5046 31.1758 27.8997 31.9467C28.0401 32.2194 28.124 32.6305 28.0126 32.8861C27.904 33.1388 27.5177 33.4229 27.2514 33.4243C26.9562 33.4243 26.5582 33.1888 26.3831 32.9375C25.8767 32.2051 25.4599 31.4142 25.0417 30.7004C23.9086 31.0044 22.8146 31.3328 21.7047 31.5869C20.7207 31.8125 20.712 31.7754 20.712 32.7747C20.712 33.3272 20.725 33.8797 20.7062 34.4308C20.6859 35.039 20.3256 35.403 19.7858 35.403C19.2519 35.403 18.8742 35.0304 18.8597 34.4294C18.8394 33.5414 18.8539 32.6534 18.8539 31.8582C17.3924 31.4699 15.993 31.0972 14.53 30.7089C14.216 31.2443 13.8484 31.8725 13.478 32.5006C12.9353 33.4243 12.4737 33.667 11.9035 33.3301C11.3479 33.0017 11.3348 32.5078 11.8587 31.6112C12.219 30.9959 12.5779 30.3791 12.9353 29.7624C12.944 29.7481 12.9426 29.7281 12.9281 29.8066C11.8587 28.7559 10.8284 27.7451 9.74159 26.6787C9.10631 27.0384 8.36395 27.4653 7.61726 27.8836C6.98632 28.2377 6.44945 28.1549 6.15425 27.6652C5.85614 27.1712 6.04716 26.6744 6.68243 26.3103C7.42769 25.882 8.17583 25.4566 8.82124 25.0883C8.42763 23.6578 8.05283 22.2972 7.65054 20.831C7.26127 20.831 6.74611 20.831 6.22949 20.831C5.88653 20.831 5.54213 20.8353 5.19917 20.831C4.45825 20.8153 4.04873 20.4827 4.05017 19.903C4.05162 19.3191 4.44812 19.0036 5.20495 18.9993C6.0515 18.9936 6.89805 18.9993 7.6462 18.9993C8.04415 17.5488 8.42184 16.1712 8.81689 14.7307C8.12663 14.3366 7.32928 13.8869 6.53772 13.4301C6.16148 13.2131 5.95165 12.8847 6.03848 12.4521C6.11807 12.0538 6.37854 11.7554 6.8011 11.7297C7.05144 11.714 7.33797 11.7983 7.56371 11.9182C8.32488 12.3222 9.06579 12.7619 9.74014 13.146C10.798 12.1024 11.8254 11.0902 12.9107 10.0194C12.5432 9.39267 12.1119 8.66172 11.6865 7.9279C11.3233 7.30259 11.4072 6.77722 11.9079 6.4874C12.4144 6.19474 12.9093 6.3789 13.2855 7.00564C13.7225 7.73803 14.1538 8.47469 14.5315 9.11428L18.851 7.95646C18.851 7.29974 18.8727 6.50454 18.8438 5.71219C18.8235 5.15541 18.9697 4.70855 19.4675 4.40732H20.1187C20.5846 4.70427 20.738 5.12828 20.7178 5.66651C20.6874 6.46313 20.7105 7.26262 20.7105 7.96074C22.1822 8.34906 23.583 8.71739 25.0402 9.10286C25.0692 9.05575 25.1618 8.90727 25.2515 8.75594C25.6335 8.11207 26.004 7.46106 26.3991 6.82433C26.6262 6.45885 26.9678 6.27897 27.412 6.39032C27.8215 6.49312 28.0936 6.76722 28.1037 7.17839C28.1095 7.4268 28.001 7.69805 27.878 7.92362C27.4685 8.666 27.0285 9.39125 26.661 10.0194C27.7492 11.093 28.7766 12.1052 29.833 13.146C30.5073 12.7619 31.2483 12.3208 32.0094 11.9168C32.2352 11.7968 32.5217 11.714 32.772 11.7297C33.1946 11.7569 33.4536 12.0524 33.5318 12.455C33.6171 12.8904 33.4059 13.2145 33.0311 13.4315C32.241 13.8898 31.4465 14.3395 30.7562 14.7349C31.1499 16.1754 31.5261 17.5531 31.9212 19.0008C32.6317 19.0008 33.4435 19.0236 34.2524 18.9936C34.7994 18.9736 35.2292 19.125 35.5302 19.5832V20.2243V20.22ZM22.6106 10.3021C20.9536 9.76529 19.2606 9.70961 17.5863 10.1208C13.4635 11.1344 10.7676 13.687 9.86025 17.7701C8.95292 21.8546 10.2886 25.3224 13.6531 27.8836C16.3128 29.908 19.3474 30.4519 22.612 29.504C22.6988 29.4897 22.79 29.484 22.8739 29.4583C28.8635 27.5938 31.7417 20.801 28.8331 15.316C27.4931 12.7876 25.4309 11.0759 22.6106 10.3021Z" fill="#030303"/>
<path d="M35.5302 19.5788C35.2278 19.1205 34.7995 18.9692 34.2525 18.9892C33.4435 19.0192 32.6317 18.9963 31.9212 18.9963C31.5261 17.5487 31.1499 16.1696 30.7563 14.7305C31.4451 14.3365 32.241 13.8853 33.0311 13.4271C33.4059 13.2101 33.6157 12.886 33.5318 12.4506C33.4537 12.0494 33.1961 11.7524 32.7721 11.7253C32.5217 11.7096 32.2352 11.7924 32.0095 11.9123C31.2483 12.3164 30.5074 12.7575 29.833 13.1415C28.7767 12.1008 27.7492 11.0872 26.661 10.015C27.0286 9.38682 27.4685 8.66157 27.878 7.9192C28.0025 7.69363 28.111 7.42095 28.1038 7.17396C28.0936 6.7628 27.8216 6.48869 27.4121 6.3859C26.9678 6.27454 26.6263 6.45443 26.3991 6.81991C26.004 7.45664 25.6336 8.10765 25.2515 8.75152C25.1618 8.90285 25.0692 9.05275 25.0403 9.09843C23.5816 8.7144 22.1823 8.34464 20.7106 7.95631C20.7106 7.25819 20.6889 6.45871 20.7178 5.66208C20.7381 5.12386 20.5847 4.69984 20.1187 4.40289H35.5302V19.5788Z" fill="#FCFCFC"/>
<path d="M22.612 29.5038C19.3474 30.4518 16.3128 29.9078 13.6531 27.8834C10.29 25.3237 8.95291 21.8545 9.86024 17.77C10.7676 13.6883 13.4635 11.1357 17.5863 10.1206C19.2605 9.70945 20.9536 9.7637 22.6106 10.3019C22.6786 10.399 22.7292 10.5161 22.8175 10.5903C23.6452 11.2884 24.567 11.8995 25.2964 12.6847C27.5929 15.1602 28.4814 18.1369 28.0097 21.4262C27.5466 24.6527 25.8709 27.2124 23.1141 29.057C22.9289 29.1812 22.7784 29.3525 22.6106 29.5024L22.612 29.5038ZM23.4687 19.0106C21.3993 19.0192 19.7772 20.6438 19.7916 22.6896C19.8061 24.6712 21.4963 26.3116 23.5092 26.2973C25.5351 26.2816 27.1819 24.647 27.1819 22.6497C27.1819 20.6053 25.5453 19.0006 23.4687 19.0092V19.0106ZM18.8438 17.1746C18.8438 15.657 17.6369 14.4521 16.1088 14.445C14.5604 14.4378 13.2985 15.6613 13.2956 17.1703C13.2942 18.6551 14.5416 19.8929 16.0494 19.9029C17.6094 19.9129 18.8423 18.7094 18.8423 17.1746H18.8438ZM16.0712 22.6597C15.5516 22.6639 15.132 23.0822 15.1494 23.5776C15.1667 24.0688 15.6226 24.4913 16.1146 24.4714C16.6037 24.4514 16.9872 24.0545 16.9915 23.5619C16.9958 23.0366 16.6066 22.654 16.0712 22.6597ZM22.5599 14.4393C22.5599 13.941 22.1287 13.5127 21.6309 13.5184C21.1316 13.5227 20.7076 13.9581 20.7149 14.4535C20.7236 14.9332 21.1215 15.3215 21.6179 15.3301C22.1374 15.3387 22.5599 14.9404 22.5599 14.4393Z" fill="#FC116D"/>
<path d="M22.612 29.5038C22.7784 29.3539 22.9304 29.1826 23.1156 29.0584C25.8737 27.2125 27.548 24.6541 28.0111 21.4276C28.4828 18.1383 27.5943 15.1602 25.2978 12.6861C24.5685 11.9009 23.6467 11.2885 22.8189 10.5918C22.7307 10.5175 22.68 10.4005 22.612 10.3034C25.4309 11.0772 27.493 12.7889 28.8345 15.3173C31.7431 20.8023 28.8649 27.5951 22.8754 29.4596C22.7914 29.4853 22.7003 29.491 22.6134 29.5053L22.612 29.5038Z" fill="#780C2E"/>
<path d="M23.4687 19.0092C25.5453 19.0006 27.182 20.6039 27.182 22.6497C27.182 24.647 25.5352 26.2816 23.5092 26.2973C21.4963 26.3116 19.8047 24.6713 19.7917 22.6897C19.7772 20.6438 21.4008 19.0192 23.4687 19.0106V19.0092ZM23.5107 20.848C22.4471 20.8409 21.6483 21.6032 21.6381 22.6368C21.628 23.6176 22.5021 24.4885 23.4919 24.4814C24.4658 24.4757 25.3152 23.6419 25.3297 22.6768C25.3456 21.6261 24.5786 20.8551 23.5107 20.8466V20.848Z" fill="#010200"/>
<path d="M18.8438 17.1732C18.8438 18.7079 17.6094 19.9114 16.0509 19.9015C14.543 19.8915 13.2942 18.6523 13.2971 17.1689C13.2985 15.6599 14.5618 14.4364 16.1102 14.4435C17.6383 14.4507 18.8467 15.6556 18.8452 17.1732H18.8438ZM16.116 16.2667C15.6211 16.2538 15.1392 16.6921 15.1421 17.1489C15.1464 17.6401 15.5762 18.0712 16.0726 18.0812C16.5762 18.0926 16.9582 17.7286 16.9799 17.2203C17.0031 16.6807 16.6398 16.2795 16.116 16.2667Z" fill="#020200"/>
<path d="M16.0697 22.6583C16.6051 22.654 16.9944 23.0352 16.9901 23.5605C16.9857 24.0531 16.6037 24.45 16.1131 24.47C15.6211 24.4899 15.1653 24.0674 15.1479 23.5762C15.1306 23.0809 15.5502 22.6626 16.0697 22.6583Z" fill="#050600"/>
<path d="M22.5599 14.4393C22.5599 14.9389 22.1373 15.3387 21.6178 15.3301C21.1229 15.3216 20.7235 14.9347 20.7149 14.4535C20.7062 13.9582 21.1316 13.5227 21.6309 13.5184C22.1287 13.5142 22.5613 13.941 22.5599 14.4393Z" fill="#040500"/>
<path d="M23.5106 20.848C24.5786 20.8551 25.3456 21.6275 25.3296 22.6782C25.3152 23.6433 24.4672 24.4771 23.4918 24.4828C22.502 24.4885 21.6265 23.6191 21.6381 22.6383C21.6497 21.6032 22.447 20.8409 23.5106 20.8494V20.848Z" fill="#780C2E"/>
<path d="M16.1145 16.2667C16.6384 16.2795 17.0016 16.6807 16.9785 17.2203C16.9568 17.7286 16.5747 18.0926 16.0711 18.0812C15.5748 18.0712 15.145 17.6401 15.1407 17.149C15.1363 16.6921 15.6196 16.2538 16.1145 16.2667Z" fill="#780C2E"/>
</svg>
