<?xml version="1.0" encoding="utf-8"?>
<!-- Generator: Adobe Illustrator 26.3.1, SVG Export Plug-In . SVG Version: 6.00 Build 0)  -->
<svg version="1.1" id="Слой_1" xmlns="http://www.w3.org/2000/svg" xmlns:xlink="http://www.w3.org/1999/xlink" x="0px" y="0px"
	 viewBox="0 0 40 40" style="enable-background:new 0 0 40 40;" xml:space="preserve">
<style type="text/css">
	.st0{fill-rule:evenodd;clip-rule:evenodd;}
	.st1{fill-rule:evenodd;clip-rule:evenodd;fill:#FBD307;}
	.st2{fill-rule:evenodd;clip-rule:evenodd;fill:#FCE25C;}
</style>
<path class="st0" d="M34.4,5c-0.7-0.4-1.3-0.1-3.7,1.6c-2.2,1.5-2.2,1.6-2.7,2.6c-0.7,1.3-0.6,2.8,0,4.2c0.7,1.4,0.5,1.9-1.1,3
	c-0.9,0.6-1.4,0.8-1.5,0.7c-2.2-1.8-4.7-2.4-7.1-1.7l-1,0.3l-0.9-1.4c-0.8-1.3-1-1.4-1.5-1.5c-0.8-0.1-1.4,0.3-1.5,1.1
	c-0.1,0.6,0,0.7,0.7,1.9L15,17l-2,1.3l-0.9-1.3c-0.8-1.2-0.9-1.3-1.5-1.4c-0.8-0.2-1.5,0.3-1.6,1c-0.1,0.5,0,0.7,0.8,1.9l0.9,1.3
	l-2,1.3l-0.9-1.3c-0.8-1.2-0.9-1.3-1.5-1.4c-0.8-0.2-1.5,0.3-1.6,1c-0.1,0.5,0,0.7,0.8,1.9l0.9,1.4l-0.6,0.8
	c-2.8,3.5-1.8,8.8,2.2,11.1c1.7,1,4,1.2,6.4,0.5c0.3-0.1,0.5,0.1,1.2,1.3c1.1,1.6,1.5,1.8,2.5,1.2c0.9-0.6,0.8-1.3-0.2-2.8l-0.9-1.3
	l2-1.3l0.9,1.3c0.8,1.2,1,1.3,1.5,1.4c0.8,0.1,1.5-0.4,1.6-1.1c0.1-0.5,0-0.7-0.8-1.9l-0.9-1.3l2-1.3l0.9,1.3c0.8,1.2,1,1.3,1.5,1.4
	c0.7,0.1,1.5-0.4,1.6-1.1c0.1-0.4,0-0.7-0.9-1.9c-0.8-1.2-0.9-1.5-0.7-1.6c0.5-0.3,1.5-2.3,1.8-3.3c0.3-1.2,0.3-2.9,0-3.9l-0.2-0.8
	l1.4-1.1c1.7-1.3,2.4-2.2,2.5-3.6c0.1-0.9-0.3-2.4-0.8-3.1c-0.2-0.3-0.2-0.7-0.2-1.1c0.1-0.6,0.2-0.7,2.3-2.1l2.2-1.5L35,6.5
	C35.1,5.7,35,5.4,34.4,5L34.4,5z"/>
<path class="st1" d="M23.1,18.8c-0.9-0.7-2.1-1-3.3-0.8l-1.1,0.1l-5.2,3.5c-4.9,3.3-5.2,3.5-5.6,4.2c-1.4,2.2-0.7,5,1.5,6.4
	c0.9,0.6,2.3,0.8,3.3,0.6c0.9-0.2,11-6.9,11.5-7.7c0.5-0.8,0.8-2.2,0.7-3.1C24.8,20.9,23.9,19.4,23.1,18.8z"/>
<path class="st2" d="M11.4,30.9c0.9-0.2,11-6.9,11.5-7.7c0.5-0.8,0.8-2.2,0.7-3.1c0-0.3-0.2-0.7-0.3-1.1c-0.1-0.1-0.2-0.1-0.2-0.2
	c-0.9-0.7-2.1-1-3.3-0.8l-1.1,0.1l-5.2,3.5c-4.9,3.3-5.2,3.5-5.6,4.2c-0.8,1.3-0.9,2.7-0.5,4c0.2,0.2,0.4,0.3,0.7,0.5
	C9,30.8,10.4,31.1,11.4,30.9z"/>
</svg>
